<svg width="12" height="12" viewBox="0 0 12 12" fill="none" xmlns="http://www.w3.org/2000/svg">
<path d="M8.69269 0H3.30731C2.43015 0 1.58892 0.348607 0.968685 0.969131C0.348445 1.58966 0 2.43127 0 3.30882V8.69118C0 9.56873 0.348445 10.4103 0.968685 11.0309C1.58892 11.6514 2.43015 12 3.30731 12H8.69269C9.56985 12 10.4111 11.6514 11.0313 11.0309C11.6516 10.4103 12 9.56873 12 8.69118V3.30882C12 2.43127 11.6516 1.58966 11.0313 0.969131C10.4111 0.348607 9.56985 0 8.69269 0ZM6.00275 9.10478C5.38959 9.10587 4.78989 8.92489 4.27961 8.58476C3.76933 8.24463 3.37141 7.76064 3.13626 7.1941C2.90111 6.62756 2.8393 6.00395 2.95866 5.40223C3.07801 4.80052 3.37317 4.24778 3.80675 3.81401C4.24032 3.38024 4.7928 3.08495 5.39424 2.96554C5.99567 2.84613 6.61899 2.90797 7.18527 3.14323C7.75156 3.37849 8.23532 3.77658 8.5753 4.2871C8.91527 4.79761 9.09618 5.39759 9.09509 6.01103C9.08636 6.83109 8.75309 7.61426 8.16831 8.18898C7.58353 8.76369 6.79491 9.08309 5.9752 9.0772L6.00275 9.10478ZM9.75104 3.30882C9.62364 3.43779 9.45544 3.51854 9.27517 3.53727C9.09489 3.55601 8.91371 3.51157 8.76254 3.41155C8.61136 3.31152 8.49957 3.16212 8.44624 2.98882C8.3929 2.81552 8.40132 2.62908 8.47007 2.46131C8.53883 2.29353 8.66365 2.15483 8.82323 2.06887C8.98281 1.98291 9.16728 1.95502 9.34513 1.98996C9.52298 2.0249 9.68318 2.1205 9.79843 2.26045C9.91367 2.4004 9.97679 2.57603 9.97702 2.75735C9.97729 2.96379 9.89608 3.16199 9.75104 3.30882Z" fill="#6F6F6F"/>
<path d="M5.9752 3.95405C5.574 3.95405 5.18182 4.07308 4.84824 4.29607C4.51465 4.51906 4.25466 4.83602 4.10113 5.20684C3.9476 5.57767 3.90743 5.98571 3.9857 6.37938C4.06397 6.77305 4.25715 7.13466 4.54083 7.41847C4.82452 7.70229 5.18598 7.89558 5.57946 7.97388C5.97295 8.05219 6.3808 8.012 6.75146 7.8584C7.12211 7.7048 7.43893 7.44468 7.66182 7.11094C7.88471 6.77721 8.00367 6.38484 8.00367 5.98346C8.00222 5.44568 7.78804 4.93033 7.40795 4.55006C7.02785 4.16979 6.51274 3.95551 5.9752 3.95405Z" fill="#6F6F6F"/>
</svg>
