<svg width="12" height="12" viewBox="0 0 12 12" fill="none" xmlns="http://www.w3.org/2000/svg">
<path fill-rule="evenodd" clip-rule="evenodd" d="M3.35416 1.30782C3.35378 1.48807 3.31766 1.66633 3.24806 1.8316C3.17845 1.99688 3.07683 2.14568 2.94944 2.26882C2.82205 2.39196 2.6716 2.48683 2.50737 2.54759C2.34314 2.60836 2.16861 2.63372 1.99453 2.62211C1.74982 2.59692 1.51742 2.49896 1.32548 2.3401C1.13354 2.18124 0.99029 1.96829 0.913061 1.72704C0.835832 1.48578 0.827934 1.22656 0.890341 0.98077C0.952747 0.734977 1.08278 0.513148 1.26468 0.342141C1.44658 0.171134 1.67256 0.0582822 1.91526 0.0172491C2.15795 -0.023784 2.40695 0.00876006 2.63212 0.110944C2.85728 0.213127 3.04894 0.380568 3.18391 0.592991C3.31887 0.805414 3.39133 1.05371 3.39255 1.30782H3.35416ZM3.1897 3.65315V11.2387H0.75V3.65315H3.1897ZM12 11.2387V6.8879C12 4.55956 10.7939 3.48887 9.1875 3.48887C8.74637 3.47191 8.30911 3.57951 7.92273 3.8001C7.53634 4.02069 7.21543 4.34593 6.99452 4.74084V3.66448H4.55482C4.58772 4.37828 4.55482 11.25 4.55482 11.25H6.99452V7.01253C6.98553 6.80511 7.01342 6.59774 7.07677 6.40071C7.16765 6.13135 7.33726 5.89781 7.56217 5.73239C7.78708 5.56697 8.05617 5.47784 8.33224 5.4773C9.21491 5.4773 9.56579 6.1741 9.56579 7.17682V11.233L12 11.2387Z" fill="#6F6F6F"/>
</svg>
