<svg width="12" height="10" viewBox="0 0 12 10" fill="none" xmlns="http://www.w3.org/2000/svg">
<path d="M11.7504 1.58001C11.3125 1.76997 10.8465 1.89344 10.3692 1.94601C10.8714 1.65751 11.2469 1.20316 11.4254 0.668008C10.9556 0.939434 10.4392 1.12838 9.9004 1.22601C9.53613 0.858318 9.05613 0.615654 8.53422 0.535317C8.01231 0.454979 7.47737 0.541416 7.01161 0.781339C6.54585 1.02126 6.17506 1.40139 5.95623 1.8633C5.73741 2.32521 5.68266 2.84333 5.8004 3.33801C4.84481 3.29151 3.90984 3.05402 3.05533 2.64076C2.20081 2.22749 1.44556 1.64754 0.837902 0.938009C0.530129 1.44704 0.43637 2.04966 0.575756 2.62281C0.715142 3.19596 1.07715 3.69643 1.58789 4.02201C1.2045 4.01174 0.829335 3.91295 0.494141 3.73401V3.76401C0.493568 4.29737 0.685775 4.8144 1.03796 5.2269C1.39015 5.63941 1.88052 5.92184 2.42541 6.02601C2.07122 6.12085 1.69888 6.13523 1.33789 6.06801C1.4918 6.5271 1.79153 6.92843 2.19504 7.21573C2.59855 7.50303 3.08559 7.66188 3.5879 7.67001C2.73561 8.3118 1.6836 8.66041 0.600399 8.66001C0.406649 8.66001 0.219141 8.66001 0.0253906 8.66001C1.05997 9.29678 2.25409 9.65435 3.48231 9.69518C4.71053 9.73601 5.92753 9.45859 7.00552 8.89205C8.08351 8.32551 8.9827 7.49076 9.60865 6.47547C10.2346 5.46018 10.5642 4.3018 10.5629 3.12201C10.5629 3.02601 10.5629 2.92401 10.5629 2.82201C11.0383 2.49649 11.4472 2.0897 11.7691 1.62201L11.7504 1.58001Z" fill="#6F6F6F"/>
</svg>
