<svg width="15" height="11" viewBox="0 0 15 11" fill="none" xmlns="http://www.w3.org/2000/svg">
<path d="M7.59996 0.5C7.59996 0.5 3.13121 0.500004 2.01246 0.776004C1.71739 0.861931 1.44894 1.01639 1.23091 1.22571C1.01287 1.43502 0.851969 1.69273 0.762462 1.976C0.370846 4.15994 0.370846 6.39207 0.762462 8.576C0.848389 8.86104 1.00807 9.12056 1.22663 9.33039C1.4452 9.54021 1.71554 9.69351 2.01246 9.776C3.14371 10.064 7.59996 10.064 7.59996 10.064C7.59996 10.064 12.075 10.064 13.225 9.782C13.5249 9.70537 13.7985 9.55404 14.018 9.34333C14.2375 9.13261 14.3951 8.86998 14.475 8.582C14.6818 7.4954 14.7823 6.39258 14.775 5.288C14.789 4.17721 14.6885 3.06781 14.475 1.976C14.3957 1.68775 14.2383 1.42482 14.0187 1.21402C13.7991 1.00321 13.5252 0.852072 13.225 0.776004C12.075 0.500004 7.59996 0.5 7.59996 0.5ZM6.18122 3.242L9.8937 5.3L6.18122 7.352V3.242Z" fill="#6F6F6F"/>
</svg>
